inDegrees=no
num_controls=7
num_derivatives=13
num_iterations=115
num_multipliers=7
num_parameters=0
num_slacks=7
num_states=26
objective=5.409929
objective_accelerations=0.373091
objective_balance=0.032762
objective_effort=0.395223
objective_height=4.511866
objective_ligament=0.096988
solver_duration=1240.464931
status=Solve_Succeeded
success=true
DataType=double
version=3
OpenSimVersion=4.4-2022-07-23-0e9fedc
endheader
time	/jointset/ground_pelvis/pelvis_tilt/value	/jointset/ground_pelvis/pelvis_tx/value	/jointset/ground_pelvis/pelvis_ty/value	/jointset/hip_l/hip_flexion_l/value	/jointset/hip_l/hip_adduction_l/value	/jointset/hip_l/hip_rotation_l/value	/jointset/back/lumbar_extension/value	/jointset/patellofemoral_l/patellar_flexion_l/value	/jointset/knee_l/knee_flexion_l/value	/jointset/knee_l/knee_adduction_l/value	/jointset/knee_l/knee_rotation_l/value	/jointset/ankle_l/ankle_angle_l/value	/jointset/subtalar_l/subtalar_angle_l/value	/jointset/ground_pelvis/pelvis_tilt/speed	/jointset/ground_pelvis/pelvis_tx/speed	/jointset/ground_pelvis/pelvis_ty/speed	/jointset/hip_l/hip_flexion_l/speed	/jointset/hip_l/hip_adduction_l/speed	/jointset/hip_l/hip_rotation_l/speed	/jointset/back/lumbar_extension/speed	/jointset/patellofemoral_l/patellar_flexion_l/speed	/jointset/knee_l/knee_flexion_l/speed	/jointset/knee_l/knee_adduction_l/speed	/jointset/knee_l/knee_rotation_l/speed	/jointset/ankle_l/ankle_angle_l/speed	/jointset/subtalar_l/subtalar_angle_l/speed	/forceset/tau_hip_flexion_l	/forceset/tau_hip_adduction_l	/forceset/tau_hip_rotation_l	/forceset/tau_knee_flexion_l	/forceset/tau_ankle_angle_l	/forceset/tau_subtalar_angle_l	/forceset/tau_lumbar_extension	lambda_cid13_p0	lambda_cid13_p1	lambda_cid13_p2	lambda_cid13_p3	lambda_cid13_p4	lambda_cid13_p5	lambda_cid14_p0	/jointset/ground_pelvis/pelvis_tilt/accel	/jointset/ground_pelvis/pelvis_tx/accel	/jointset/ground_pelvis/pelvis_ty/accel	/jointset/hip_l/hip_flexion_l/accel	/jointset/hip_l/hip_adduction_l/accel	/jointset/hip_l/hip_rotation_l/accel	/jointset/back/lumbar_extension/accel	/jointset/patellofemoral_l/patellar_flexion_l/accel	/jointset/knee_l/knee_flexion_l/accel	/jointset/knee_l/knee_adduction_l/accel	/jointset/knee_l/knee_rotation_l/accel	/jointset/ankle_l/ankle_angle_l/accel	/jointset/subtalar_l/subtalar_angle_l/accel	gamma_cid13_p0	gamma_cid13_p1	gamma_cid13_p2	gamma_cid13_p3	gamma_cid13_p4	gamma_cid13_p5	gamma_cid14_p0
1	-0.02628849101014102	-0.03583067256548853	0.7566144776468321	1.029243623122893	-0.3343398511372584	0.005044672097946933	-0.9599310341383799	1.188219873930984	1.188219873929662	-0.08547786734419062	-0.1745319855908942	0.2692055348869419	0.05341286995279725	0.1128085122410249	0.02877268677133504	0.06277189089925211	-0.3000293474287195	-0.000767055760639588	-0.06619127512639923	-0.002704283076043657	-0.1669204178909768	-0.166920417890975	0.0002711681367650752	-1.435076484718596e-05	0.01113337635973923	0.00488919846987559	-0.3085403138293925	0.04676606761393445	-0.004526357078833042	-0.336472540402193	0.0242522074812407	0.02709823220636352	0.3901770291829365	-41.70184753246622	-3.996748237436747	-0.3543380049142659	10.95047247315196	-777.3398862417347	-62.20348654107689	-1.268421771636762	0.5302391435855482	0.05809660632941143	1.106407803144758	-3.735826570208528	0.03007118679055491	-1.414718911674765	0.5200292965542423	-4.197125985695785	-4.19712598569588	-0.1879225956889734	-0.002620140964122812	-1.281390497717127	-0.4803807552521747	-9.27388677498777e-09	1.09046302227393e-09	4.203462730339065e-08	5.731341051051987e-09	-2.173626165764594e-08	4.892407505909154e-08	-9.952212372229716e-09
1.01	-0.02513442820716531	-0.03553996003263375	0.7572972911199322	1.02605755287944	-0.3343455412559585	0.004311697368013497	-0.9599310688431379	1.186341317577294	1.186341317576259	-0.08548339526322668	-0.1745317843849354	0.2692530104578797	0.05343846349482095	0.1179878711651138	0.02937859943568166	0.07377897488519294	-0.3371560694220198	-0.0003694433225995735	-0.08039898952527308	0.002751621937871726	-0.2087790262929982	-0.2087790262930008	-0.001381776204449734	4.447506544398238e-05	-0.001638823799242848	0.0002311868046034736	-0.3079100304326566	0.04691842891695158	-0.004571403952927536	-0.3360920344090052	0.0241100296370642	0.02717195295016286	0.3899919526426381	-41.72120676151207	-4.038969877522354	-0.3320785537359827	10.79656400724636	-777.0977332694679	-62.24101499102078	-1.301966457806077	0.5093564847308645	0.06315770228672672	1.096078763517165	-3.696802126573163	0.04483121135613536	-1.423107772729081	0.566513084283586	-4.178451551100703	-4.178451551101641	-0.1547406864445049	0.008629417808770863	-1.275220327693965	-0.4582650284362608	-1.517609209066208e-08	-1.027005147107205e-08	5.927306046759376e-08	1.075074922517824e-08	-2.797447584028665e-08	4.813593185798229e-08	-1.36289259764919e-08
1.02	-0.02392905737135061	-0.03524292455197756	0.7580898194463297	1.022501073993472	-0.3343472102624753	0.003436783480405788	-0.9598749161021342	1.184044530482855	1.184044530482149	-0.08550560469231247	-0.174531295826223	0.2691727469166894	0.05341752618893832	0.123070118805561	0.03003727633161869	0.08471486155890459	-0.3741110759226939	3.716667719410934e-05	-0.09457910667353568	0.008533206170727475	-0.2505665660408357	-0.2505665660408424	-0.003065133869905746	4.311980705488226e-05	-0.0144144460664287	-0.004416971111523002	-0.3072797470361489	0.04707079022013128	-0.004616450827812963	-0.3357115284158333	0.02396785179297904	0.02724567369422929	0.3898068761021299	-41.75296423165733	-4.079013807435719	-0.3101743594506435	10.69057645797621	-777.0207530613498	-62.27189332030872	-1.343568439556077	0.5108168868572617	0.06864945264752835	1.092168340698929	-3.701483471683304	0.03187069914124993	-1.409199461552578	0.5851651403428004	-4.182912254858982	-4.18291225485902	-0.1940052605372245	-0.01465635870027606	-1.282074919357834	-0.4784100054230839	-1.960918532799287e-08	-1.837531480568087e-08	7.318811520166506e-08	1.442865171766338e-08	-3.297829290459169e-08	4.740453566826428e-08	-1.647969589457166e-08
1.03	-0.0226736425146089	-0.03493885872495623	0.7589913301398221	1.018576025431981	-0.3343447099611721	0.002420320454719467	-0.9597579951187172	1.181330266792955	1.181330266792629	-0.08554480881214112	-0.1745309809855814	0.2689649540976368	0.05335034454640566	0.1279676661198709	0.03080289420345489	0.09557356043870067	-0.4108590173261945	0.0004694804254602597	-0.108702169846678	0.01503783089184305	-0.2922706963127429	-0.2922706963127482	-0.00477892414732394	2.061899813347242e-05	-0.02712034751030658	-0.008999891991656361	-0.3075912622360708	0.0473895587169222	-0.00467531639480678	-0.3348527276522499	0.0236467111332836	0.02741547571197252	0.3907546048513124	-41.85473397782173	-4.162078512279122	-0.2659323942232861	10.31138842223854	-777.4356878845579	-62.31387555425156	-1.393556626666115	0.4724443551917892	0.08457236482723468	1.080655532342087	-3.655508955105694	0.04989336292427079	-1.412178229915128	0.7111371945939248	-4.16183818786856	-4.161838187868714	-0.1605609707472247	0.004086989554914488	-1.26128478954759	-0.4453191140969232	-2.402728762574871e-08	-2.644736129173113e-08	8.706925791093907e-08	1.809286537666239e-08	-3.796951407993411e-08	4.667371852968292e-08	-1.932203781585364e-08
1.04	-0.02137060804440463	-0.03462632583714328	0.7600010147962557	1.014284685560364	-0.3343376901923296	0.001262963100351795	-0.9595704226767605	1.178199426845443	1.178199426845502	-0.08560124984668877	-0.1745308643666375	0.2686308148576186	0.05323791649811461	0.1325940414930976	0.03173068848994378	0.1063496541472824	-0.4473693379466461	0.0009410601839056548	-0.1227579724086013	0.02266349787687659	-0.333881817565126	-0.3338818175651311	-0.00651251680084829	3.475450921852202e-06	-0.0396837302599737	-0.01346625226332816	-0.3079027774360866	0.04770832721372608	-0.004734181962650227	-0.3339939268886724	0.02332557047361764	0.02758527772975983	0.3917023336004211	-41.96903810833936	-4.243027979689575	-0.221937121330246	9.978252774540852	-778.0188966537012	-62.34996178391974	-1.452303028831893	0.4565824986407102	0.1010847355780545	1.075647306456059	-3.653959315073528	0.03972390117706896	-1.39574733930882	0.8093735931263215	-4.164310450954146	-4.164310450954392	-0.1979657357584627	-0.01358490635840706	-1.253571180515697	-0.4550978837308262	-2.651121388162169e-08	-3.591524257916583e-08	9.867773596703337e-08	1.822780191334054e-08	-4.134512403836999e-08	4.160944351605629e-08	-2.16542224025376e-08
1.05	-0.02002254688619667	-0.03430374539409959	0.7611179910651379	1.009629476012971	-0.3343257447954078	-3.452892322845848e-05	-0.9593014969449432	1.174653041338427	1.174653041337591	-0.08567516944586433	-0.1745308882973152	0.2681716958769942	0.05308140685314385	0.1369828551988977	0.03280828994159971	0.1170259069155821	-0.4836255350885453	0.001458230134484829	-0.136724757816279	0.03126037407969151	-0.3753690288291607	-0.3753690288291553	-0.008271416920167037	-5.010015251624238e-06	-0.05212147764625819	-0.01781297568398708	-0.3075411036820441	0.04794250943392273	-0.004805113431723092	-0.3330528721786596	0.0233194573542022	0.02775569359427275	0.3919502768730549	-41.94200234351236	-4.351905552691358	-0.1701607428120271	9.606593790730278	-777.9318117797015	-62.41385364792129	-1.520244629533651	0.424728906280606	0.1145349739370876	1.060651387340322	-3.604397218719175	0.05923631981548298	-1.394815342721421	0.9056534726997121	-4.136983395300015	-4.136983395298625	-0.1648670584130245	0.006029791810528787	-1.236091614466987	-0.4210598848803961	-2.893469713618583e-08	-4.542674370414379e-08	1.102151932527158e-07	1.825244853994618e-08	-4.467024614627755e-08	3.640974794383451e-08	-2.397046457251536e-08
1.06	-0.01863165797096002	-0.03396970151174567	0.7623411372867666	1.004613115033179	-0.3343083231434095	-0.001471223041098008	-0.9589424406833235	1.170692572332537	1.170692572330816	-0.08576668102794814	-0.1745308950509273	0.2675887564031535	0.05288210991123797	0.1411595928938965	0.0340233763519914	0.1275836446967359	-0.5195996244293436	0.002036311197700608	-0.150598391272897	0.04068960383613123	-0.4166985173400682	-0.4166985173400513	-0.01003091337523698	6.910860866200484e-06	-0.06444782890382623	-0.02202371165051962	-0.3071794299279912	0.04817669165424431	-0.004876044901528395	-0.3321118174686303	0.02331334423483784	0.02792610945898467	0.3921982201456864	-41.92741504722186	-4.458785726054108	-0.1184948454065617	9.278568929772669	-778.0127319408122	-62.47339741320467	-1.597844218766695	0.4141672964805928	0.1285817273251371	1.051944309026887	-3.597537754853325	0.05190612370442398	-1.377116949096871	0.9758443038512409	-4.132765900328693	-4.132765900328724	-0.1980850029086834	-0.009503637900111932	-1.231291954772501	-0.4279003929055605	-3.176501106259136e-08	-5.689549863553882e-08	1.197104726917634e-07	1.864371044076615e-08	-4.835872499071878e-08	3.003202202262854e-08	-2.614001827931583e-08
